<svg xmlns="http://www.w3.org/2000/svg" xmlns:xlink="http://www.w3.org/1999/xlink" width="74.99970245361328" height="16.10370063781738" viewBox="1.3301486968993999 -0.2148115370008341 74.99970245361328 16.10370063781738"><path d="M 13.71330070495605 14.2047004699707 C 12.44700050354004 12.93930053710938 11.81430053710938 11.38770008087158 11.81430053710938 9.551700592041016 C 11.81430053710938 7.715700149536133 12.44700050354004 6.164999961853027 13.71330070495605 4.89870023727417 C 14.97870063781738 3.633300065994263 16.52400016784668 2.99970006942749 18.34830093383789 2.99970006942749 C 20.17170143127441 2.99970006942749 21.71969985961914 3.633300065994263 22.99230003356934 4.89870023727417 C 24.26399993896484 6.164999961853027 24.90030097961426 7.715700149536133 24.90030097961426 9.551700592041016 C 24.90030097961426 11.38770008087158 24.26399993896484 12.94200038909912 22.99230003356934 14.21370029449463 C 21.71969985961914 15.47370052337646 20.17170143127441 16.10370063781738 18.34830093383789 16.10370063781738 C 16.52400016784668 16.10370063781738 14.97870063781738 15.47100067138672 13.71330070495605 14.2047004699707 Z M 68.21369934082031 15.85170078277588 L 68.21369934082031 10.93770027160645 L 63.91170120239258 3.251700162887573 L 66.71970367431641 3.251700162887573 L 69.45570373535156 8.507699966430664 L 72.19170379638672 3.251700162887573 L 74.99970245361328 3.251700162887573 L 70.67970275878906 10.93770027160645 L 70.67970275878906 15.85170078277588 L 68.21369934082031 15.85170078277588 Z M 56.4723014831543 15.85170078277588 L 56.4723014831543 3.251700162887573 L 58.95630264282227 3.251700162887573 L 58.95630264282227 13.47570037841797 L 63.76230239868164 13.47570037841797 L 63.76230239868164 15.85170078277588 L 56.4723014831543 15.85170078277588 Z M 50.88600158691406 15.85170078277588 L 46.38600158691406 9.947700500488281 L 46.38600158691406 15.85170078277588 L 43.90200042724609 15.85170078277588 L 43.90200042724609 3.251700162887573 L 46.38600158691406 3.251700162887573 L 46.38600158691406 8.813700675964355 L 50.70600128173828 3.251700162887573 L 53.56800079345703 3.251700162887573 L 48.90600204467773 9.371700286865234 L 53.74800109863281 15.85170078277588 L 50.88600158691406 15.85170078277588 Z M 0 15.85170078277588 L 0 3.251700162887573 L 4.967999935150146 3.251700162887573 C 6.048000335693359 3.251700162887573 6.957000255584717 3.584700107574463 7.695000171661377 4.250699996948242 C 8.433000564575195 4.916699886322021 8.802000045776367 5.766300201416016 8.802000045776367 6.797699928283691 C 8.802000045776367 7.841700077056885 8.406000137329102 8.682300567626953 7.61400032043457 9.317700386047363 C 8.718299865722656 9.954000473022461 9.270000457763672 10.91429996490479 9.270000457763672 12.19770050048828 C 9.270000457763672 13.26600074768066 8.892000198364258 14.14170074462891 8.136000633239746 14.8257007598877 C 7.380000114440918 15.50970077514648 6.450300216674805 15.85170078277588 5.346000194549561 15.85170078277588 L 0 15.85170078277588 Z M 29.46870040893555 11.20499992370605 C 28.20330047607422 9.938700675964355 27.56970024108887 8.38800048828125 27.56970024108887 6.552000045776367 C 27.56970024108887 4.716000080108643 28.20330047607422 3.165300130844116 29.46870040893555 1.89900004863739 C 30.73500061035156 0.6327000260353088 32.28030014038086 0 34.10370254516602 0 C 35.92800140380859 0 37.47600173950195 0.6327000260353088 38.74769973754883 1.89900004863739 C 40.02030181884766 3.165300130844116 40.65570068359375 4.716000080108643 40.65570068359375 6.552000045776367 C 40.65570068359375 8.38800048828125 40.02030181884766 9.942299842834473 38.74769973754883 11.2140007019043 C 37.47600173950195 12.47399997711182 35.92800140380859 13.10400009155273 34.10370254516602 13.10400009155273 C 32.28030014038086 13.10400009155273 30.73500061035156 12.47130012512207 29.46870040893555 11.20499992370605 Z" transform="matrix(1,0,0,1,1.3301486968993999,-0.2148115370008341)" fill="#ffffff" fill-rule="evenodd"/></svg>